<?xml version="1.0" standalone="no"?>
<!DOCTYPE svg PUBLIC "-//W3C//DTD SVG 20010904//EN"
 "http://www.w3.org/TR/2001/REC-SVG-20010904/DTD/svg10.dtd">
<svg version="1.0" xmlns="http://www.w3.org/2000/svg"
 width="512.000000pt" height="512.000000pt" viewBox="0 0 512.000000 512.000000"
 preserveAspectRatio="xMidYMid meet">
<metadata>
Created by potrace 1.14, written by Peter Selinger 2001-2017
</metadata>
<g transform="translate(0.000000,512.000000) scale(0.100000,-0.100000)"
fill="#000000" stroke="none">
<path d="M2462 4929 c-29 -15 -51 -36 -70 -68 l-27 -46 0 -275 c1 -249 3 -278
19 -310 23 -42 38 -55 92 -80 43 -21 125 -22 175 -2 33 13 87 74 96 110 4 15
7 146 8 292 l0 265 -27 47 c-50 84 -170 114 -266 67z"/>
<path d="M975 4310 c-125 -27 -201 -166 -150 -274 21 -45 382 -406 406 -406
10 0 21 -4 24 -10 3 -5 30 -10 58 -10 60 1 109 29 160 92 38 47 48 127 23 180
-16 33 -318 346 -381 394 -36 27 -99 43 -140 34z"/>
<path d="M4054 4300 c-35 -12 -80 -50 -206 -175 -88 -88 -177 -180 -197 -204
-33 -41 -36 -49 -36 -111 0 -57 4 -72 28 -103 67 -88 161 -120 239 -83 48 23
397 372 416 416 34 79 14 151 -60 221 -54 52 -113 64 -184 39z"/>
<path d="M2395 3919 c-374 -48 -717 -254 -940 -564 -107 -149 -200 -367 -230
-540 -16 -88 -20 -153 -19 -280 2 -222 48 -407 151 -606 129 -251 343 -463
591 -589 82 -41 242 -103 242 -94 0 3 9 0 20 -6 20 -11 85 -25 175 -38 63 -9
307 -9 360 1 85 14 103 18 190 44 94 27 135 43 232 90 54 26 193 113 220 137
6 6 33 29 60 51 66 54 189 193 242 273 53 81 132 245 160 329 90 279 90 589 1
863 -47 141 -160 348 -245 445 -94 107 -228 225 -320 282 -263 164 -596 240
-890 202z"/>
<path d="M313 2749 c-90 -18 -143 -89 -143 -191 0 -74 30 -132 88 -165 l47
-28 255 -1 c284 -1 322 5 376 57 38 36 52 84 49 163 -2 46 -8 64 -32 94 -57
72 -76 76 -358 77 -137 1 -265 -2 -282 -6z"/>
<path d="M4294 2754 c-5 -1 -21 -5 -36 -8 -36 -8 -85 -51 -107 -95 -36 -72
-13 -202 43 -243 57 -41 81 -44 356 -43 l266 1 46 27 c32 18 53 40 67 70 38
78 22 192 -32 239 -57 50 -67 52 -338 53 -141 0 -260 0 -265 -1z"/>
<path d="M1235 1492 c-50 -24 -387 -359 -410 -408 -73 -154 105 -332 259 -259
54 26 397 375 414 421 30 85 0 166 -84 230 -47 36 -122 43 -179 16z"/>
<path d="M3732 1494 c-46 -24 -110 -100 -118 -140 -14 -74 3 -120 69 -191 65
-70 199 -204 286 -287 102 -96 199 -93 292 7 54 59 67 131 35 199 -16 34 -317
345 -383 395 -43 33 -133 41 -181 17z"/>
<path d="M2482 976 c-40 -14 -77 -47 -100 -90 -14 -27 -16 -70 -17 -306 l0
-275 27 -47 c71 -120 265 -120 336 0 l27 47 0 275 c0 308 -1 311 -76 372 -29
23 -47 29 -100 32 -35 2 -79 -1 -97 -8z"/>
</g>
</svg>
